<svg
  width="256"
  height="256"
  viewBox="0 0 100 100"
  fill="none"
  xmlns="http://www.w3.org/2000/svg"
>
  <circle cx="50" cy="50" r="50" fill="black" />
  <path
    d="M71.3533 29.5858C67.8844 26.5416 63.856 24.551 59.5165 23.7788C55.1771 23.0066 50.6728 23.4849 46.4633 25.1618C42.2538 26.8386 38.4893 29.6583 35.539 33.3533C32.5888 37.0483 30.5627 41.5055 29.6467 46.2338C28.7308 50.962 28.9564 55.8573 30.3019 60.5165C31.6473 65.1757 34.0792 69.4673 37.3803 72.9789C40.6814 76.4905 44.7428 79.1158 49.1763 80.6122C53.6099 82.1086 58.2933 82.4302 62.7383 81.5458C67.1832 80.6613 71.2643 78.5997 74.6233 75.5858L74.9833 75.2458C75.8637 74.4095 76.6573 73.5042 77.3533 72.5458L65.5733 60.7558C63.9442 62.3854 62.0353 63.6933 59.9483 64.6093C57.8613 65.5252 55.6374 66.0315 53.3833 66.1058C48.0133 66.1058 43.6233 63.9158 40.2133 59.5258C36.8033 55.1358 35.1033 49.7658 35.1033 43.4158C35.1033 37.0658 36.8033 31.6958 40.2133 27.3058C43.6233 22.9158 48.0133 20.7258 53.3833 20.7258C56.6333 20.7258 59.4133 21.5258 61.7233 23.1258C62.9133 23.9558 63.9833 24.9658 64.9333 26.1558L77.2533 13.8258C75.2933 11.9758 73.0733 10.4558 70.5933 9.26582L71.3533 29.5858Z"
    fill="url(#paint0_linear_1_2)"
  />
  <defs>
    <linearGradient
      id="paint0_linear_1_2"
      x1="77.5"
      y1="8"
      x2="22"
      y2="85.5"
      gradientUnits="userSpaceOnUse"
    >
      <stop stop-color="white" />
      <stop offset="1" stop-color="#808080" />
    </linearGradient>
  </defs>
</svg>
